<?xml version="1.0" encoding="utf-8"?>
<!-- Generator: Adobe Illustrator 25.2.0, SVG Export Plug-In . SVG Version: 6.00 Build 0)  -->
<svg version="1.1" id="Layer_1" xmlns="http://www.w3.org/2000/svg" xmlns:xlink="http://www.w3.org/1999/xlink" x="0px" y="0px"
	 viewBox="0 0 23.7 135.6" style="enable-background:new 0 0 23.7 135.6;" xml:space="preserve">
<style type="text/css">
	.st0{fill:#00152B;}
</style>
<g id="Group_9" transform="translate(-31 -834)">
	<g id="TheBrothCo" transform="translate(-26.39 1085.801) rotate(-90)">
		<path id="Path_1" class="st0" d="M116.2,57.7h10.8v3.2h-3.7v19.8h-3.5V60.9h-3.7V57.7z"/>
		<path id="Path_2" class="st0" d="M136.5,70.5h-3.9v10.2h-3.5v-23h3.5v9.7h3.9v-9.7h3.5v23h-3.5L136.5,70.5z"/>
		<path id="Path_3" class="st0" d="M142.7,57.7h8.9v3.2h-5.5v6.2h4.8v3.2h-4.8v7.1h5.5v3.2h-8.9V57.7z"/>
		<path id="Path_4" class="st0" d="M158.7,57.7h5.4c3.3,0,5.1,1.7,5.1,5.4v2.1c0.1,1.5-0.6,2.9-1.8,3.8c1.4,0.9,2.2,2.4,2.1,4v2.1
			c0,4.3-2.1,5.6-4.8,5.6h-6V57.7z M162.1,60.9v6.5h1.5c1.8,0,2.2-0.9,2.2-2.6v-1.6c0-1.7-0.4-2.4-2.2-2.4L162.1,60.9z M162.1,70.7
			v6.8h1.6c1.8,0,2.2-0.7,2.2-2.4v-1.8c0-1.7-0.4-2.6-2.2-2.6L162.1,70.7L162.1,70.7z"/>
		<path id="Path_5" class="st0" d="M176.6,73h-1.3v7.8h-3.5v-23h6.2c2.8,0,4.8,1.8,4.8,5.6v4.1c0,2.7-1.1,4.5-2.9,5.2l3.7,8.2H180
			L176.6,73z M175.2,60.9v9h1.8c1.8,0,2.3-0.8,2.3-2.6v-3.9c0-1.7-0.4-2.6-2.2-2.6L175.2,60.9L175.2,60.9z"/>
		<path id="Path_6" class="st0" d="M196.1,75.8c0,2.7-1.3,5.2-5.4,5.2c-4,0-5.5-2.6-5.5-5.2V62.6c0-2.7,1.5-5.2,5.5-5.2
			c4,0,5.4,2.6,5.4,5.2V75.8z M192.7,62.7c0-1.4-0.7-2.2-2-2.2c-1-0.1-2,0.7-2.1,1.7c0,0.1,0,0.3,0,0.4v13.1c-0.2,1,0.6,2,1.6,2.2
			c0.1,0,0.3,0,0.4,0c1.3,0,2-0.8,2-2.2V62.7z"/>
		<path id="Path_7" class="st0" d="M197.3,57.7h10.8v3.2h-3.7v19.8H201V60.9h-3.7V57.7z"/>
		<path id="Path_8" class="st0" d="M217.3,70.5h-3.9v10.2H210v-23h3.5v9.7h3.9v-9.7h3.5v23h-3.5V70.5z"/>
		<path id="Path_9" class="st0" d="M228.2,62.6c0-2.7,1.5-5.2,5.5-5.2c4,0,5.4,2.6,5.4,5.2v1.2h-3.4v-1.1c0-1.4-0.7-2.2-2-2.2
			c-1-0.1-2,0.7-2.1,1.7c0,0.1,0,0.3,0,0.4v13.1c-0.2,1,0.6,2,1.6,2.2c0.1,0,0.3,0,0.4,0c1.3,0,2-0.8,2-2.2v-1.4h3.3v1.5
			c0,2.7-1.3,5.2-5.4,5.2c-4,0-5.5-2.6-5.5-5.2L228.2,62.6z"/>
		<path id="Path_10" class="st0" d="M251.8,70.3c0,2.7-1.3,5.2-5.4,5.2c-4,0-5.5-2.6-5.5-5.2v-7.7c0-2.7,1.5-5.2,5.5-5.2
			c4,0,5.4,2.6,5.4,5.2V70.3z M248.4,62.7c0-1.4-0.7-2.2-2-2.2c-1-0.1-2,0.7-2.1,1.7c0,0.1,0,0.3,0,0.4v7.6c-0.2,1,0.6,2,1.6,2.2
			c0.1,0,0.3,0,0.4,0c1.3,0,2-0.8,2-2.2V62.7z"/>
		<path id="Path_11" class="st0" d="M248.4,79.1c0,1.1-0.9,1.9-1.9,1.9s-1.9-0.9-1.9-1.9s0.9-1.9,1.9-1.9l0,0
			C247.5,77.2,248.4,78.1,248.4,79.1z"/>
	</g>
</g>
</svg>
